<svg version="1.1" xmlns="http://www.w3.org/2000/svg" xmlns:xlink="http://www.w3.org/1999/xlink" width="266.11775" height="288.50793" viewBox="0,0,266.11775,288.50793"><g transform="translate(-4.63224,-33.25874)"><g data-paper-data="{&quot;isPaintingLayer&quot;:true}" fill-rule="nonzero" stroke-linecap="butt" stroke-linejoin="miter" stroke-miterlimit="10" stroke-dasharray="" stroke-dashoffset="0" style="mix-blend-mode: normal"><path d="M6.06981,34.69631h203.2545v281.3558h-203.2545z" fill="#ffffcc" stroke="#000000" stroke-width="2.87513"/><text transform="translate(11.00001,54.50001)" font-size="22" xml:space="preserve" fill="#000000" fill-rule="nonzero" stroke="none" stroke-width="1" stroke-linecap="butt" stroke-linejoin="miter" stroke-miterlimit="10" stroke-dasharray="" stroke-dashoffset="0" font-family="Serif" font-weight="400" text-anchor="start" style="mix-blend-mode: normal"><tspan x="0" dy="0">Next to each flag</tspan><tspan x="0" dy="31.9px">is a number. These</tspan><tspan x="0" dy="31.9px">show how many </tspan><tspan x="0" dy="31.9px">units are in each </tspan><tspan x="0" dy="31.9px">region This is </tspan><tspan x="0" dy="31.9px">very important </tspan><tspan x="0" dy="31.9px">when deciding </tspan><tspan x="0" dy="31.9px">where to invade.</tspan><tspan x="0" dy="31.9px">(space)</tspan></text><path d="M259.25,192.47222c-5.61489,0 -10.16666,-2.70559 -10.16666,-6.04312c0,-3.33752 4.55177,-6.04312 10.16666,-6.04312c5.61489,0 10.16666,2.7056 10.16666,6.04312c0,3.33752 -4.55177,6.04312 -10.16666,6.04312z" fill="none" stroke="#ff0000" stroke-width="2"/><path d="M259.58333,161.47221c-5.61489,0 -10.16666,-2.7056 -10.16666,-6.04312c0,-3.33752 4.55177,-6.04312 10.16666,-6.04312c5.61489,0 10.16667,2.70559 10.16667,6.04312c0,3.33752 -4.55178,6.04312 -10.16667,6.04312z" fill="none" stroke="#ff0000" stroke-width="2"/></g></g></svg>