<svg version="1.1" xmlns="http://www.w3.org/2000/svg" xmlns:xlink="http://www.w3.org/1999/xlink" width="35.5" height="35.5" viewBox="0,0,35.5,35.5"><g transform="translate(-223,-161.5)"><g data-paper-data="{&quot;isPaintingLayer&quot;:true}" fill-rule="nonzero" stroke-linecap="butt" stroke-linejoin="miter" stroke-miterlimit="10" stroke-dasharray="" stroke-dashoffset="0" style="mix-blend-mode: normal"><path d="M240.75,162.5c4.621,0 8.809,1.877 11.841,4.909c3.032,3.032 4.909,7.22 4.909,11.841c0,4.621 -1.877,8.809 -4.909,11.841c-3.032,3.032 -7.22,4.909 -11.841,4.909c-4.621,0 -8.809,-1.877 -11.841,-4.909c-3.032,-3.032 -4.909,-7.22 -4.909,-11.841c0,-4.621 1.877,-8.809 4.909,-11.841c3.032,-3.032 7.22,-4.909 11.841,-4.909z" fill="#cc7700" stroke="#000000" stroke-width="2"/><text transform="translate(229.36626,176.66) scale(0.26616,0.28949)" font-size="40" xml:space="preserve" fill="#000000" fill-rule="nonzero" stroke="none" stroke-width="1" stroke-linecap="butt" stroke-linejoin="miter" stroke-miterlimit="10" stroke-dasharray="" stroke-dashoffset="0" font-family="Serif" font-weight="normal" text-anchor="start" style="mix-blend-mode: normal"><tspan x="0" dy="0">End</tspan><tspan x="0" dy="46.15px"> turn</tspan></text></g></g></svg>