<svg xmlns="http://www.w3.org/2000/svg" xmlns:xlink="http://www.w3.org/1999/xlink" version="1.1" width="89" height="88.25" viewBox="0.25 -0.5 89 88.25">
  <!-- Exported by Scratch - http://scratch.mit.edu/ -->
  <path id="ID0.4033531188033521" fill="#666666" stroke="none" d="M 45.75 0 C 46.647 0 47.459 0.364 48.047 0.953 C 48.636 1.541 49 2.353 49 3.25 C 49 4.147 48.636 4.959 48.047 5.547 C 47.459 6.136 46.647 6.5 45.75 6.5 C 44.853 6.5 44.041 6.136 43.453 5.547 C 42.864 4.959 42.5 4.147 42.5 3.25 C 42.5 2.353 42.864 1.541 43.453 0.953 C 44.041 0.364 44.853 0 45.75 0 Z " stroke-width="1"/>
  <path id="ID0.4033531188033521" fill="#666666" stroke="none" d="M 71 9.75 C 71.897 9.75 72.709 10.114 73.297 10.703 C 73.886 11.291 74.25 12.103 74.25 13 C 74.25 13.897 73.886 14.709 73.297 15.297 C 72.709 15.886 71.897 16.25 71 16.25 C 70.103 16.25 69.291 15.886 68.703 15.297 C 68.114 14.709 67.75 13.897 67.75 13 C 67.75 12.103 68.114 11.291 68.703 10.703 C 69.291 10.114 70.103 9.75 71 9.75 Z " stroke-width="1"/>
  <path id="ID0.4033531188033521" fill="#CCCCCC" stroke="none" d="M 73.5 69.75 C 74.397 69.75 75.209 70.114 75.797 70.703 C 76.386 71.291 76.75 72.103 76.75 73 C 76.75 73.897 76.386 74.709 75.797 75.297 C 75.209 75.886 74.397 76.25 73.5 76.25 C 72.603 76.25 71.791 75.886 71.203 75.297 C 70.614 74.709 70.25 73.897 70.25 73 C 70.25 72.103 70.614 71.291 71.203 70.703 C 71.791 70.114 72.603 69.75 73.5 69.75 Z " stroke-width="1"/>
  <path id="ID0.4033531188033521" fill="#666666" stroke="none" d="M 85.5 40.75 C 86.397 40.75 87.209 41.114 87.797 41.703 C 88.386 42.291 88.75 43.103 88.75 44 C 88.75 44.897 88.386 45.709 87.797 46.297 C 87.209 46.886 86.397 47.25 85.5 47.25 C 84.603 47.25 83.791 46.886 83.203 46.297 C 82.614 45.709 82.25 44.897 82.25 44 C 82.25 43.103 82.614 42.291 83.203 41.703 C 83.791 41.114 84.603 40.75 85.5 40.75 Z " stroke-width="1"/>
  <path id="ID0.4033531188033521" fill="#B2B2B2" stroke="none" d="M 45 80.75 C 45.897 80.75 46.709 81.114 47.297 81.703 C 47.886 82.291 48.25 83.103 48.25 84 C 48.25 84.897 47.886 85.709 47.297 86.297 C 46.709 86.886 45.897 87.25 45 87.25 C 44.103 87.25 43.291 86.886 42.703 86.297 C 42.114 85.709 41.75 84.897 41.75 84 C 41.75 83.103 42.114 82.291 42.703 81.703 C 43.291 81.114 44.103 80.75 45 80.75 Z " stroke-width="1"/>
  <path id="ID0.4033531188033521" fill="#7F7F7F" stroke="none" d="M 22 72.75 C 22.897 72.75 23.709 73.114 24.297 73.703 C 24.886 74.291 25.25 75.103 25.25 76 C 25.25 76.897 24.886 77.709 24.297 78.297 C 23.709 78.886 22.897 79.25 22 79.25 C 21.103 79.25 20.291 78.886 19.703 78.297 C 19.114 77.709 18.75 76.897 18.75 76 C 18.75 75.103 19.114 74.291 19.703 73.703 C 20.291 73.114 21.103 72.75 22 72.75 Z " stroke-width="1"/>
  <path id="ID0.4033531188033521" fill="#666666" stroke="none" d="M 4 44.25 C 4.897 44.25 5.709 44.614 6.297 45.203 C 6.886 45.791 7.25 46.603 7.25 47.5 C 7.25 48.397 6.886 49.209 6.297 49.797 C 5.709 50.386 4.897 50.75 4 50.75 C 3.103 50.75 2.291 50.386 1.703 49.797 C 1.114 49.209 0.75 48.397 0.75 47.5 C 0.75 46.603 1.114 45.791 1.703 45.203 C 2.291 44.614 3.103 44.25 4 44.25 Z " stroke-width="1"/>
  <path id="ID0.4033531188033521" fill="#666666" stroke="none" d="M 14 14.75 C 14.897 14.75 15.709 15.114 16.297 15.703 C 16.886 16.291 17.25 17.103 17.25 18 C 17.25 18.897 16.886 19.709 16.297 20.297 C 15.709 20.886 14.897 21.25 14 21.25 C 13.103 21.25 12.291 20.886 11.703 20.297 C 11.114 19.709 10.75 18.897 10.75 18 C 10.75 17.103 11.114 16.291 11.703 15.703 C 12.291 15.114 13.103 14.75 14 14.75 Z " stroke-width="1"/>
</svg>