<svg version="1.1" xmlns="http://www.w3.org/2000/svg" xmlns:xlink="http://www.w3.org/1999/xlink" width="298.11442" height="127.30002" viewBox="0,0,298.11442,127.30002"><g transform="translate(-90.9428,-116.34999)"><g data-paper-data="{&quot;isPaintingLayer&quot;:true}" fill="#7d006c" fill-rule="nonzero" stroke-linejoin="miter" stroke-miterlimit="10" stroke-dasharray="" stroke-dashoffset="0" style="mix-blend-mode: normal"><path d="M353.11575,187.2147c5.1311,0 9.7806,2.1202 13.1475,5.5448c3.3662,3.4246 5.4505,8.1542 5.4505,13.3738c0,5.2197 -2.0843,9.9493 -5.4505,13.3739c-3.3669,3.4246 -8.0164,5.5448 -13.1475,5.5448c-5.1311,0 -9.7806,-2.1202 -13.1475,-5.5448c-3.3662,-3.4246 -5.4505,-8.1542 -5.4505,-13.3739c0,-5.2196 2.0843,-9.9492 5.4505,-13.3738c3.3669,-3.4246 8.0164,-5.5448 13.1475,-5.5448z" stroke="none" stroke-width="0.64131" stroke-linecap="butt"/><path d="M122.88415,196.9216c5.83,0 11.1124,2.3682 14.938,6.1931c3.825,3.8257 6.1931,9.1081 6.1931,14.9381c0,5.83 -2.3681,11.1124 -6.1931,14.9381c-3.8256,3.8249 -9.108,6.193 -14.938,6.193c-5.83,0 -11.1125,-2.3681 -14.9381,-6.193c-3.8249,-3.8257 -6.1931,-9.1081 -6.1931,-14.9381c0,-5.83 2.3682,-11.1124 6.1931,-14.9381c3.8256,-3.8249 9.1081,-6.1931 14.9381,-6.1931z" stroke="none" stroke-width="0.735" stroke-linecap="butt"/><path d="M117.11375,237.2369l8.337,-50.3428l-7.0544,-0.962l-24.6904,20.5219l-1.924,-3.2065l26.6144,-21.1633l5.1305,-1.9239v-15.7121l51.6254,-0.6413l-0.3206,-3.8479h-24.6905l-0.3206,-25.973l33.3481,-1.2826l-0.3207,-5.4512l1.924,-0.3206v-3.8479h2.2445l-0.3206,-6.0924h30.1416l-0.3207,2.2446l-1.6033,1.6032l2.8859,3.5272l-0.3206,1.924l2.2446,2.5652l-0.6414,2.8859l13.7882,0.3207l21.8045,4.1685l16.0328,0.9619l0.9619,3.5272l5.7718,1.924l13.4675,0.3206l22.1252,1.2826l62.2071,0.962l3.5272,-2.5652h2.5652l4.1685,-0.3207l2.8859,-0.6413l-0.3206,9.299l-5.7718,0.3207l-5.1305,-0.6414l-65.0929,2.2446l-21.8046,0.962l-12.5055,-0.3207l-2.8859,7.3751l8.0164,0.962l0.3206,3.5272l39.7612,5.1305l2.2446,3.8478l25.0111,-0.6413v1.9239l-25.6524,0.3207v6.7337l33.6688,-0.9619l10.5816,3.8478l8.9783,11.223l-3.2065,1.9239l-6.7338,-8.6577l-4.8098,-3.5272l-9.299,-1.6033l6.4131,37.8373l-32.0655,20.2013h-175.3982l-36.5547,-5.7718z" stroke="#7d006c" stroke-width="1.28262" stroke-linecap="round"/></g></g></svg>