<svg version="1.1" xmlns="http://www.w3.org/2000/svg" xmlns:xlink="http://www.w3.org/1999/xlink" width="460.73259" height="285.23649" viewBox="0,0,460.73259,285.23649"><g transform="translate(-5.46426,-32.75596)"><g data-paper-data="{&quot;isPaintingLayer&quot;:true}" fill-rule="nonzero" stroke-linecap="butt" stroke-linejoin="miter" stroke-miterlimit="10" stroke-dasharray="" stroke-dashoffset="0" style="mix-blend-mode: normal"><path d="M7.4046,34.6963h456.8519v281.3558h-456.8519z" fill="#ffd499" stroke="#000000" stroke-width="3.88069"/><text transform="translate(52,89.55)" font-size="22" xml:space="preserve" fill="#000000" fill-rule="nonzero" stroke="none" stroke-width="1" stroke-linecap="butt" stroke-linejoin="miter" stroke-miterlimit="10" stroke-dasharray="" stroke-dashoffset="0" font-family="Serif" font-weight="400" text-anchor="start" style="mix-blend-mode: normal"><tspan x="0" dy="0">Attacker:</tspan></text><path d="M207,63h52v52h-52z" fill="#000000" stroke="none" stroke-width="1"/><path d="M233,80c2.483,0 4.733,1.008 6.362,2.638c1.63,1.629 2.638,3.879 2.638,6.362c0,2.483 -1.008,4.733 -2.638,6.362c-1.629,1.63 -3.879,2.638 -6.362,2.638c-2.483,0 -4.733,-1.008 -6.362,-2.638c-1.63,-1.629 -2.638,-3.879 -2.638,-6.362c0,-2.483 1.008,-4.733 2.638,-6.362c1.629,-1.63 3.879,-2.638 6.362,-2.638z" fill="#ffffff" stroke="none" stroke-width="1"/><path d="M278,63h52v52h-52z" fill="#000000" stroke="none" stroke-width="1"/><path d="M318,68c1.655,0 3.155,0.672 4.242,1.758c1.086,1.087 1.758,2.587 1.758,4.242c0,1.655 -0.672,3.155 -1.758,4.242c-1.087,1.086 -2.587,1.758 -4.242,1.758c-1.655,0 -3.155,-0.672 -4.242,-1.758c-1.086,-1.087 -1.758,-2.587 -1.758,-4.242c0,-1.655 0.672,-3.155 1.758,-4.242c1.087,-1.086 2.587,-1.758 4.242,-1.758z" fill="#ffffff" stroke="none" stroke-width="1"/><path d="M304,81c1.655,0 3.155,0.672 4.242,1.758c1.086,1.087 1.758,2.587 1.758,4.242c0,1.655 -0.672,3.155 -1.758,4.242c-1.087,1.086 -2.587,1.758 -4.242,1.758c-1.655,0 -3.155,-0.672 -4.242,-1.758c-1.086,-1.087 -1.758,-2.587 -1.758,-4.242c0,-1.655 0.672,-3.155 1.758,-4.242c1.087,-1.086 2.587,-1.758 4.242,-1.758z" fill="#ffffff" stroke="none" stroke-width="1"/><path d="M290,95c1.655,0 3.155,0.672 4.242,1.758c1.086,1.087 1.758,2.587 1.758,4.242c0,1.655 -0.672,3.155 -1.758,4.242c-1.087,1.086 -2.587,1.758 -4.242,1.758c-1.655,0 -3.155,-0.672 -4.242,-1.758c-1.086,-1.087 -1.758,-2.587 -1.758,-4.242c0,-1.655 0.672,-3.155 1.758,-4.242c1.087,-1.086 2.587,-1.758 4.242,-1.758z" fill="#ffffff" stroke="none" stroke-width="1"/><path d="M345,63h52v52h-52z" fill="#000000" stroke="none" stroke-width="1"/><path d="M354,65c1.655,0 3.155,0.672 4.242,1.758c1.086,1.087 1.758,2.587 1.758,4.242c0,1.655 -0.672,3.155 -1.758,4.242c-1.087,1.086 -2.587,1.758 -4.242,1.758c-1.655,0 -3.155,-0.672 -4.242,-1.758c-1.086,-1.087 -1.758,-2.587 -1.758,-4.242c0,-1.655 0.672,-3.155 1.758,-4.242c1.087,-1.086 2.587,-1.758 4.242,-1.758z" fill="#ffffff" stroke="none" stroke-width="1"/><path d="M388,65c1.655,0 3.155,0.672 4.242,1.758c1.086,1.087 1.758,2.587 1.758,4.242c0,1.655 -0.672,3.155 -1.758,4.242c-1.087,1.086 -2.587,1.758 -4.242,1.758c-1.655,0 -3.155,-0.672 -4.242,-1.758c-1.086,-1.087 -1.758,-2.587 -1.758,-4.242c0,-1.655 0.672,-3.155 1.758,-4.242c1.087,-1.086 2.587,-1.758 4.242,-1.758z" fill="#ffffff" stroke="none" stroke-width="1"/><path d="M372,83c1.655,0 3.155,0.672 4.242,1.758c1.086,1.087 1.758,2.587 1.758,4.242c0,1.655 -0.672,3.155 -1.758,4.242c-1.087,1.086 -2.587,1.758 -4.242,1.758c-1.655,0 -3.155,-0.672 -4.242,-1.758c-1.086,-1.087 -1.758,-2.587 -1.758,-4.242c0,-1.655 0.672,-3.155 1.758,-4.242c1.087,-1.086 2.587,-1.758 4.242,-1.758z" fill="#ffffff" stroke="none" stroke-width="1"/><path d="M353,99c1.655,0 3.155,0.672 4.242,1.758c1.086,1.087 1.758,2.587 1.758,4.242c0,1.655 -0.672,3.155 -1.758,4.242c-1.087,1.086 -2.587,1.758 -4.242,1.758c-1.655,0 -3.155,-0.672 -4.242,-1.758c-1.086,-1.087 -1.758,-2.587 -1.758,-4.242c0,-1.655 0.672,-3.155 1.758,-4.242c1.087,-1.086 2.587,-1.758 4.242,-1.758z" fill="#ffffff" stroke="none" stroke-width="1"/><path d="M387,99c1.655,0 3.155,0.672 4.242,1.758c1.086,1.087 1.758,2.587 1.758,4.242c0,1.655 -0.672,3.155 -1.758,4.242c-1.087,1.086 -2.587,1.758 -4.242,1.758c-1.655,0 -3.155,-0.672 -4.242,-1.758c-1.086,-1.087 -1.758,-2.587 -1.758,-4.242c0,-1.655 0.672,-3.155 1.758,-4.242c1.087,-1.086 2.587,-1.758 4.242,-1.758z" fill="#ffffff" stroke="none" stroke-width="1"/><path d="M243.05,147.9553h54v54h-54z" fill="#ffffff" stroke="none" stroke-width="0.94737"/><path d="M258.9824,155.0765c2.207,0 4.207,0.896 5.6555,2.3444c1.4485,1.4485 2.3445,3.4485 2.3445,5.6556c0,2.207 -0.896,4.207 -2.3445,5.6555c-1.4485,1.4485 -3.4485,2.3445 -5.6555,2.3445c-2.2071,0 -4.2071,-0.896 -5.6556,-2.3445c-1.4484,-1.4485 -2.3444,-3.4485 -2.3444,-5.6555c0,-2.2071 0.896,-4.2071 2.3444,-5.6556c1.4485,-1.4484 3.4485,-2.3444 5.6556,-2.3444z" fill="#000000" stroke="none" stroke-width="0.94118"/><path d="M280.9824,181.0765c2.207,0 4.207,0.896 5.6555,2.3444c1.4485,1.4485 2.3445,3.4485 2.3445,5.6556c0,2.207 -0.896,4.207 -2.3445,5.6555c-1.4485,1.4485 -3.4485,2.3445 -5.6555,2.3445c-2.2071,0 -4.2071,-0.896 -5.6556,-2.3445c-1.4484,-1.4485 -2.3444,-3.4485 -2.3444,-5.6555c0,-2.2071 0.896,-4.2071 2.3444,-5.6556c1.4485,-1.4484 3.4485,-2.3444 5.6556,-2.3444z" fill="#000000" stroke="none" stroke-width="0.94118"/><path d="M313,149.0553h54v54h-54z" fill="#ffffff" stroke="none" stroke-width="0.94737"/><path d="M324.9824,151.9265c2.207,0 4.207,0.896 5.6555,2.3444c1.4485,1.4485 2.3445,3.4485 2.3445,5.6556c0,2.207 -0.896,4.207 -2.3445,5.6555c-1.4485,1.4485 -3.4485,2.3445 -5.6555,2.3445c-2.2071,0 -4.2071,-0.896 -5.6556,-2.3445c-1.4484,-1.4485 -2.3444,-3.4485 -2.3444,-5.6555c0,-2.2071 0.896,-4.2071 2.3444,-5.6556c1.4485,-1.4484 3.4485,-2.3444 5.6556,-2.3444z" fill="#000000" stroke="none" stroke-width="0.94118"/><path d="M339.9824,170.1765c2.207,0 4.207,0.896 5.6555,2.3444c1.4485,1.4485 2.3445,3.4485 2.3445,5.6556c0,2.207 -0.896,4.207 -2.3445,5.6555c-1.4485,1.4485 -3.4485,2.3445 -5.6555,2.3445c-2.2071,0 -4.2071,-0.896 -5.6556,-2.3445c-1.4484,-1.4485 -2.3444,-3.4485 -2.3444,-5.6555c0,-2.2071 0.896,-4.2071 2.3444,-5.6556c1.4485,-1.4484 3.4485,-2.3444 5.6556,-2.3444z" fill="#000000" stroke="none" stroke-width="0.94118"/><path d="M356.9824,151.5765c2.207,0 4.207,0.896 5.6555,2.3444c1.4485,1.4485 2.3445,3.4485 2.3445,5.6556c0,2.207 -0.896,4.207 -2.3445,5.6555c-1.4485,1.4485 -3.4485,2.3445 -5.6555,2.3445c-2.2071,0 -4.2071,-0.896 -5.6556,-2.3445c-1.4484,-1.4485 -2.3444,-3.4485 -2.3444,-5.6555c0,-2.2071 0.896,-4.2071 2.3444,-5.6556c1.4485,-1.4484 3.4485,-2.3444 5.6556,-2.3444z" fill="#000000" stroke="none" stroke-width="0.94118"/><path d="M356.9824,185.6265c2.207,0 4.207,0.896 5.6555,2.3444c1.4485,1.4485 2.3445,3.4485 2.3445,5.6556c0,2.207 -0.896,4.207 -2.3445,5.6555c-1.4485,1.4485 -3.4485,2.3445 -5.6555,2.3445c-2.2071,0 -4.2071,-0.896 -5.6556,-2.3445c-1.4484,-1.4485 -2.3444,-3.4485 -2.3444,-5.6555c0,-2.2071 0.896,-4.2071 2.3444,-5.6556c1.4485,-1.4484 3.4485,-2.3444 5.6556,-2.3444z" fill="#000000" stroke="none" stroke-width="0.94118"/><path d="M323.9824,184.8265c2.207,0 4.207,0.896 5.6555,2.3444c1.4485,1.4485 2.3445,3.4485 2.3445,5.6556c0,2.207 -0.896,4.207 -2.3445,5.6555c-1.4485,1.4485 -3.4485,2.3445 -5.6555,2.3445c-2.2071,0 -4.2071,-0.896 -5.6556,-2.3445c-1.4484,-1.4485 -2.3444,-3.4485 -2.3444,-5.6555c0,-2.2071 0.896,-4.2071 2.3444,-5.6556c1.4485,-1.4484 3.4485,-2.3444 5.6556,-2.3444z" fill="#000000" stroke="none" stroke-width="0.94118"/><text transform="translate(59,171.55)" font-size="22" xml:space="preserve" fill="#000000" fill-rule="nonzero" stroke="none" stroke-width="1" stroke-linecap="butt" stroke-linejoin="miter" stroke-miterlimit="10" stroke-dasharray="" stroke-dashoffset="0" font-family="Serif" font-weight="400" text-anchor="start" style="mix-blend-mode: normal"><tspan x="0" dy="0">Defender:</tspan></text><text transform="translate(17,238.55)" font-size="22" xml:space="preserve" fill="#000000" fill-rule="nonzero" stroke="none" stroke-width="1" stroke-linecap="butt" stroke-linejoin="miter" stroke-miterlimit="10" stroke-dasharray="" stroke-dashoffset="0" font-family="Serif" font-weight="400" text-anchor="start" style="mix-blend-mode: normal"><tspan x="0" dy="0">The highest rolls are compared. </tspan><tspan x="0" dy="31.9px">5 - 5   1 - /</tspan><tspan x="0" dy="31.9px">3 - 2</tspan></text><text transform="translate(232,282.55)" font-size="22" xml:space="preserve" fill="#000000" fill-rule="nonzero" stroke="none" stroke-width="1" stroke-linecap="butt" stroke-linejoin="miter" stroke-miterlimit="10" stroke-dasharray="" stroke-dashoffset="0" font-family="Serif" font-weight="400" text-anchor="start" style="mix-blend-mode: normal"><tspan x="0" dy="0">(space)</tspan></text><text transform="translate(21,61.5)" font-size="22" xml:space="preserve" fill="#000000" fill-rule="nonzero" stroke="none" stroke-width="1" stroke-linecap="butt" stroke-linejoin="miter" stroke-miterlimit="10" stroke-dasharray="" stroke-dashoffset="0" font-family="Serif" font-weight="400" text-anchor="start" style="mix-blend-mode: normal"><tspan x="0" dy="0">e.g.</tspan></text></g></g></svg>